<svg width="35" height="35" viewBox="0 0 36 36" fill="none" xmlns="http://www.w3.org/2000/svg">
<path d="M2 24V12C2 6.47715 6.47715 2 12 2H24C29.5228 2 34 6.47715 34 12V24C34 29.5228 29.5228 34 24 34H12C6.47715 34 2 29.5228 2 24Z" stroke="white" stroke-width="4" stroke-linecap="round" stroke-linejoin="round"/>
<path d="M18.5 11C22.0899 11 25 13.9101 25 17.5C25 21.0899 22.0899 24 18.5 24C14.9101 24 12 21.0899 12 17.5C12 13.9101 14.9101 11 18.5 11Z" stroke="white" stroke-width="3" stroke-linecap="round" stroke-linejoin="round"/>
<path d="M26.5 7C27.3284 7 28 7.67157 28 8.5C28 9.32843 27.3284 10 26.5 10C25.6716 10 25 9.32843 25 8.5C25 7.67157 25.6716 7 26.5 7Z" fill="white" stroke="white" stroke-linecap="round" stroke-linejoin="round"/>
</svg>
