<svg id="Capa_1" enable-background="new 0 0 512 512" height="100" viewBox="0 0 512 512" width="270" xmlns="http://www.w3.org/2000/svg"><g><g><path d="m497 458h-482c-8.28 0-15 6.72-15 15v24c0 8.28 6.72 15 15 15h482c8.28 0 15-6.72 15-15v-24c0-8.28-6.72-15-15-15z" fill="#ffb454"/></g><g><path d="m512 473v24c0 8.28-6.72 15-15 15h-241v-54h241c8.28 0 15 6.72 15 15z" fill="#ff8659"/></g><g><path d="m464 294h-416c-8.28 0-15 6.72-15 15v149h446v-149c0-8.28-6.72-15-15-15z" fill="#d8d8fc"/></g><g><path d="m479 311.35v146.65h-223v-164h118.77s52.7 42.86 104.23 17.35z" fill="#bfbfef"/></g><g><path d="m479 309v2.35l-10.8 21.11c-39.4 77.06-118.66 125.54-205.2 125.54 58.72-35.45 99.32-94.48 111.41-162l.36-2h89.23c8.28 0 15 6.72 15 15z" fill="#ff1f3d"/></g><g><circle cx="108" cy="373" fill="#e9e9ff" r="16"/></g><g><circle cx="212" cy="389" fill="#e9e9ff" r="16"/></g><g><path d="m424 123h-243.51s-43.97 40.24-107.49 18.8v152.2h366v-156c0-8.28-6.72-15-15-15z" fill="#e9e9ff"/></g><g><path d="m439 138v156h-183v-171h168c8.28 0 15 6.72 15 15z" fill="#d8d8fc"/></g><g><circle cx="370" cy="208" fill="#e9e9ff" r="16"/></g><g><circle cx="298" cy="216" fill="#e9e9ff" r="16"/></g><g><path d="m294.5 294h-10.94c-9.29 0-18.49-.6-27.56-1.77-68.71-8.84-129.69-50.37-162.79-112.5l-20.21-37.93v-3.8c0-8.28 6.72-15 15-15h92.49l3.36 18.8c8.87 49.51 34.64 93.84 72.15 125.91 11.73 10.04 24.62 18.87 38.5 26.29z" fill="#eb6173"/></g><g><path d="m294.5 294h-10.94c-9.29 0-18.49-.6-27.56-1.77v-24.52c11.73 10.04 24.62 18.87 38.5 26.29z" fill="#ff1f3d"/></g><g><path d="m336 38.85v.01c0 10.92-4.6 21.33-12.66 28.7l-57.23 52.21c-2.87 2.61-6.49 3.92-10.11 3.92s-7.24-1.31-10.11-3.92l-57.22-52.21c-8.07-7.36-12.67-17.78-12.67-28.7 0-10.73 4.35-20.44 11.38-27.48 7.04-7.03 16.75-11.38 27.48-11.38h1.04c10.31 0 20.19 4.09 27.48 11.38l12.62 12.62 12.62-12.62c7.29-7.29 17.17-11.38 27.47-11.38h1.06c21.45 0 38.85 17.4 38.85 38.85z" fill="#eb6173"/></g><g><path d="m336 38.85v.01c0 10.92-4.6 21.33-12.66 28.7l-57.23 52.21c-2.87 2.61-6.49 3.92-10.11 3.92v-99.69l12.62-12.62c7.29-7.29 17.17-11.38 27.47-11.38h1.06c21.45 0 38.85 17.4 38.85 38.85z" fill="#ff1f3d"/></g></g></svg>